<svg width="67" height="65" viewBox="0 0 67 65" fill="none" xmlns="http://www.w3.org/2000/svg">
<path d="M33.3252 0C14.913 0 0 14.9213 0 33.3252C0 48.0521 9.54766 60.5407 22.7861 64.9424C24.4523 65.2562 25.0633 64.2259 25.0633 63.34C25.0633 62.5486 25.0355 60.4519 25.0216 57.6748C15.7517 59.6854 13.7966 53.2036 13.7966 53.2036C12.2803 49.3573 10.0892 48.3298 10.0892 48.3298C7.07049 46.2637 10.3225 46.3053 10.3225 46.3053C13.6689 46.5386 15.4268 49.7378 15.4268 49.7378C18.3983 54.8338 23.2276 53.3619 25.1327 52.5094C25.4327 50.3543 26.2908 48.8852 27.2433 48.0521C19.8424 47.219 12.0637 44.353 12.0637 31.5839C12.0637 27.9459 13.3551 24.9744 15.4934 22.6417C15.1185 21.8002 13.9938 18.4122 15.785 13.8216C15.785 13.8216 18.576 12.9274 24.9494 17.2374C27.6155 16.496 30.4481 16.1294 33.2807 16.1127C36.1134 16.1294 38.946 16.496 41.612 17.2374C47.9438 12.9274 50.7348 13.8216 50.7348 13.8216C52.526 18.4122 51.4013 21.8002 51.068 22.6417C53.1925 24.9744 54.4839 27.9459 54.4839 31.5839C54.4839 44.3863 46.6941 47.2051 39.2793 48.0243C40.4456 49.0241 41.5287 51.068 41.5287 54.1895C41.5287 58.6495 41.4871 62.232 41.4871 63.315C41.4871 64.1898 42.0702 65.2312 43.7782 64.898C57.111 60.5268 66.6503 48.0299 66.6503 33.3252C66.6503 14.9213 51.729 0 33.3252 0Z" fill="black"/>
</svg>
